<svg width="192" height="33" viewBox="0 0 192 33" fill="none" xmlns="http://www.w3.org/2000/svg">
<path fill-rule="evenodd" clip-rule="evenodd" d="M0 11.7893L18.1213 33H28L0 1V11.7893Z" fill="white"/>
<path fill-rule="evenodd" clip-rule="evenodd" d="M0 20V33H11L0 20Z" fill="white"/>
<path fill-rule="evenodd" clip-rule="evenodd" d="M6.00025 0.0109831L12.1661 6.99139H15.5132C15.5132 6.99139 17.9752 6.87358 18.8016 9.65348C19.5376 12.1287 18.0383 13.7943 18.0383 13.7943L22.6185 19C22.6185 19 28.5507 13.6487 24.7006 5.59713C21.9538 -0.147356 16.1234 0.000353363 16.1234 0.000353363C16.1234 0.000353363 5.94156 0.0109831 6.00025 0.0109831Z" fill="white"/>
<path d="M54.1569 27L50.9169 22.32H50.7249H47.3409V27H43.4529V10.2H50.7249C52.2129 10.2 53.5009 10.448 54.5889 10.944C55.6929 11.44 56.5409 12.144 57.1329 13.056C57.7249 13.968 58.0209 15.048 58.0209 16.296C58.0209 17.544 57.7169 18.624 57.1089 19.536C56.5169 20.432 55.6689 21.12 54.5649 21.6L58.3329 27H54.1569ZM54.0849 16.296C54.0849 15.352 53.7809 14.632 53.1729 14.136C52.5649 13.624 51.6769 13.368 50.5089 13.368H47.3409V19.224H50.5089C51.6769 19.224 52.5649 18.968 53.1729 18.456C53.7809 17.944 54.0849 17.224 54.0849 16.296ZM65.9282 13.896C67.9282 13.896 69.4642 14.376 70.5362 15.336C71.6082 16.28 72.1442 17.712 72.1442 19.632V27H68.6402V25.392C67.9362 26.592 66.6242 27.192 64.7042 27.192C63.7122 27.192 62.8482 27.024 62.1122 26.688C61.3922 26.352 60.8402 25.888 60.4562 25.296C60.0722 24.704 59.8802 24.032 59.8802 23.28C59.8802 22.08 60.3282 21.136 61.2242 20.448C62.1362 19.76 63.5362 19.416 65.4242 19.416H68.4002C68.4002 18.6 68.1522 17.976 67.6562 17.544C67.1602 17.096 66.4162 16.872 65.4242 16.872C64.7362 16.872 64.0562 16.984 63.3842 17.208C62.7282 17.416 62.1682 17.704 61.7042 18.072L60.3602 15.456C61.0642 14.96 61.9042 14.576 62.8802 14.304C63.8722 14.032 64.8882 13.896 65.9282 13.896ZM65.6402 24.672C66.2802 24.672 66.8482 24.528 67.3442 24.24C67.8402 23.936 68.1922 23.496 68.4002 22.92V21.6H65.8322C64.2962 21.6 63.5282 22.104 63.5282 23.112C63.5282 23.592 63.7122 23.976 64.0802 24.264C64.4642 24.536 64.9842 24.672 65.6402 24.672ZM83.8607 26.376C83.4927 26.648 83.0367 26.856 82.4927 27C81.9647 27.128 81.4047 27.192 80.8127 27.192C79.2767 27.192 78.0847 26.8 77.2367 26.016C76.4047 25.232 75.9887 24.08 75.9887 22.56V17.256H73.9967V14.376H75.9887V11.232H79.7327V14.376H82.9487V17.256H79.7327V22.512C79.7327 23.056 79.8687 23.48 80.1407 23.784C80.4287 24.072 80.8287 24.216 81.3407 24.216C81.9327 24.216 82.4367 24.056 82.8527 23.736L83.8607 26.376ZM93.8104 13.896C95.4104 13.896 96.6984 14.376 97.6744 15.336C98.6664 16.296 99.1624 17.72 99.1624 19.608V27H95.4184V20.184C95.4184 19.16 95.1944 18.4 94.7464 17.904C94.2984 17.392 93.6504 17.136 92.8024 17.136C91.8584 17.136 91.1064 17.432 90.5464 18.024C89.9864 18.6 89.7064 19.464 89.7064 20.616V27H85.9624V9.192H89.7064V15.432C90.2024 14.936 90.8024 14.56 91.5064 14.304C92.2104 14.032 92.9784 13.896 93.8104 13.896ZM115.345 20.592C115.345 20.64 115.321 20.976 115.273 21.6H105.505C105.681 22.4 106.097 23.032 106.753 23.496C107.409 23.96 108.225 24.192 109.201 24.192C109.873 24.192 110.465 24.096 110.977 23.904C111.505 23.696 111.993 23.376 112.441 22.944L114.433 25.104C113.217 26.496 111.441 27.192 109.105 27.192C107.649 27.192 106.361 26.912 105.241 26.352C104.121 25.776 103.257 24.984 102.649 23.976C102.041 22.968 101.737 21.824 101.737 20.544C101.737 19.28 102.033 18.144 102.625 17.136C103.233 16.112 104.057 15.32 105.097 14.76C106.153 14.184 107.329 13.896 108.625 13.896C109.889 13.896 111.033 14.168 112.057 14.712C113.081 15.256 113.881 16.04 114.457 17.064C115.049 18.072 115.345 19.248 115.345 20.592ZM108.649 16.728C107.801 16.728 107.089 16.968 106.513 17.448C105.937 17.928 105.585 18.584 105.457 19.416H111.817C111.689 18.6 111.337 17.952 110.761 17.472C110.185 16.976 109.481 16.728 108.649 16.728ZM121.413 15.792C121.861 15.168 122.461 14.696 123.213 14.376C123.981 14.056 124.861 13.896 125.853 13.896V17.352C125.437 17.32 125.157 17.304 125.013 17.304C123.941 17.304 123.101 17.608 122.493 18.216C121.885 18.808 121.581 19.704 121.581 20.904V27H117.837V14.088H121.413V15.792ZM135.234 10.2H139.122V23.832H147.546V27H135.234V10.2ZM154.803 13.896C156.803 13.896 158.339 14.376 159.411 15.336C160.483 16.28 161.019 17.712 161.019 19.632V27H157.515V25.392C156.811 26.592 155.499 27.192 153.579 27.192C152.587 27.192 151.723 27.024 150.987 26.688C150.267 26.352 149.715 25.888 149.331 25.296C148.947 24.704 148.755 24.032 148.755 23.28C148.755 22.08 149.203 21.136 150.099 20.448C151.011 19.76 152.411 19.416 154.299 19.416H157.275C157.275 18.6 157.027 17.976 156.531 17.544C156.035 17.096 155.291 16.872 154.299 16.872C153.611 16.872 152.931 16.984 152.259 17.208C151.603 17.416 151.043 17.704 150.579 18.072L149.235 15.456C149.939 14.96 150.779 14.576 151.755 14.304C152.747 14.032 153.763 13.896 154.803 13.896ZM154.515 24.672C155.155 24.672 155.723 24.528 156.219 24.24C156.715 23.936 157.067 23.496 157.275 22.92V21.6H154.707C153.171 21.6 152.403 22.104 152.403 23.112C152.403 23.592 152.587 23.976 152.955 24.264C153.339 24.536 153.859 24.672 154.515 24.672ZM172.04 13.896C173.24 13.896 174.328 14.176 175.304 14.736C176.296 15.28 177.072 16.056 177.632 17.064C178.192 18.056 178.472 19.216 178.472 20.544C178.472 21.872 178.192 23.04 177.632 24.048C177.072 25.04 176.296 25.816 175.304 26.376C174.328 26.92 173.24 27.192 172.04 27.192C170.264 27.192 168.912 26.632 167.984 25.512V27H164.408V9.192H168.152V15.456C169.096 14.416 170.392 13.896 172.04 13.896ZM171.392 24.12C172.352 24.12 173.136 23.8 173.744 23.16C174.368 22.504 174.68 21.632 174.68 20.544C174.68 19.456 174.368 18.592 173.744 17.952C173.136 17.296 172.352 16.968 171.392 16.968C170.432 16.968 169.64 17.296 169.016 17.952C168.408 18.592 168.104 19.456 168.104 20.544C168.104 21.632 168.408 22.504 169.016 23.16C169.64 23.8 170.432 24.12 171.392 24.12ZM185.322 27.192C184.25 27.192 183.202 27.064 182.178 26.808C181.154 26.536 180.338 26.2 179.73 25.8L180.978 23.112C181.554 23.48 182.25 23.784 183.066 24.024C183.882 24.248 184.682 24.36 185.466 24.36C187.05 24.36 187.842 23.968 187.842 23.184C187.842 22.816 187.626 22.552 187.194 22.392C186.762 22.232 186.098 22.096 185.202 21.984C184.146 21.824 183.274 21.64 182.586 21.432C181.898 21.224 181.298 20.856 180.786 20.328C180.29 19.8 180.042 19.048 180.042 18.072C180.042 17.256 180.274 16.536 180.738 15.912C181.218 15.272 181.906 14.776 182.802 14.424C183.714 14.072 184.786 13.896 186.018 13.896C186.93 13.896 187.834 14 188.73 14.208C189.642 14.4 190.394 14.672 190.986 15.024L189.738 17.688C188.602 17.048 187.362 16.728 186.018 16.728C185.218 16.728 184.618 16.84 184.218 17.064C183.818 17.288 183.618 17.576 183.618 17.928C183.618 18.328 183.834 18.608 184.266 18.768C184.698 18.928 185.386 19.08 186.33 19.224C187.386 19.4 188.25 19.592 188.922 19.8C189.594 19.992 190.178 20.352 190.674 20.88C191.17 21.408 191.418 22.144 191.418 23.088C191.418 23.888 191.178 24.6 190.698 25.224C190.218 25.848 189.514 26.336 188.586 26.688C187.674 27.024 186.586 27.192 185.322 27.192Z" fill="white"/>
</svg>
