<svg width="214" height="55" viewBox="0 0 214 55" fill="none" xmlns="http://www.w3.org/2000/svg">
<g filter="url(#filter0_d_3_10)">
<rect x="2" y="2" width="208" height="49" rx="4" fill="#323232"/>
<g clip-path="url(#clip0_3_10)">
<path fill-rule="evenodd" clip-rule="evenodd" d="M10 21.7893L28.1213 43H38L10 11V21.7893Z" fill="white"/>
<path fill-rule="evenodd" clip-rule="evenodd" d="M10 30V43H21L10 30Z" fill="white"/>
<path fill-rule="evenodd" clip-rule="evenodd" d="M16.0003 10.011L22.1661 16.9914H25.5132C25.5132 16.9914 27.9752 16.8736 28.8016 19.6535C29.5376 22.1287 28.0383 23.7943 28.0383 23.7943L32.6185 29C32.6185 29 38.5507 23.6487 34.7006 15.5971C31.9538 9.85264 26.1234 10.0004 26.1234 10.0004C26.1234 10.0004 15.9416 10.011 16.0003 10.011Z" fill="white"/>
<path d="M64.1569 37L60.9169 32.32H60.7249H57.3409V37H53.4529V20.2H60.7249C62.2129 20.2 63.5009 20.448 64.5889 20.944C65.6929 21.44 66.5409 22.144 67.1329 23.056C67.7249 23.968 68.0209 25.048 68.0209 26.296C68.0209 27.544 67.7169 28.624 67.1089 29.536C66.5169 30.432 65.6689 31.12 64.5649 31.6L68.3329 37H64.1569ZM64.0849 26.296C64.0849 25.352 63.7809 24.632 63.1729 24.136C62.5649 23.624 61.6769 23.368 60.5089 23.368H57.3409V29.224H60.5089C61.6769 29.224 62.5649 28.968 63.1729 28.456C63.7809 27.944 64.0849 27.224 64.0849 26.296ZM75.9282 23.896C77.9282 23.896 79.4642 24.376 80.5362 25.336C81.6082 26.28 82.1442 27.712 82.1442 29.632V37H78.6402V35.392C77.9362 36.592 76.6242 37.192 74.7042 37.192C73.7122 37.192 72.8482 37.024 72.1122 36.688C71.3922 36.352 70.8402 35.888 70.4562 35.296C70.0722 34.704 69.8802 34.032 69.8802 33.28C69.8802 32.08 70.3282 31.136 71.2242 30.448C72.1362 29.76 73.5362 29.416 75.4242 29.416H78.4002C78.4002 28.6 78.1522 27.976 77.6562 27.544C77.1602 27.096 76.4162 26.872 75.4242 26.872C74.7362 26.872 74.0562 26.984 73.3842 27.208C72.7282 27.416 72.1682 27.704 71.7042 28.072L70.3602 25.456C71.0642 24.96 71.9042 24.576 72.8802 24.304C73.8722 24.032 74.8882 23.896 75.9282 23.896ZM75.6402 34.672C76.2802 34.672 76.8482 34.528 77.3442 34.24C77.8402 33.936 78.1922 33.496 78.4002 32.92V31.6H75.8322C74.2962 31.6 73.5282 32.104 73.5282 33.112C73.5282 33.592 73.7122 33.976 74.0802 34.264C74.4642 34.536 74.9842 34.672 75.6402 34.672ZM93.8607 36.376C93.4927 36.648 93.0367 36.856 92.4927 37C91.9647 37.128 91.4047 37.192 90.8127 37.192C89.2767 37.192 88.0847 36.8 87.2367 36.016C86.4047 35.232 85.9887 34.08 85.9887 32.56V27.256H83.9967V24.376H85.9887V21.232H89.7327V24.376H92.9487V27.256H89.7327V32.512C89.7327 33.056 89.8687 33.48 90.1407 33.784C90.4287 34.072 90.8287 34.216 91.3407 34.216C91.9327 34.216 92.4367 34.056 92.8527 33.736L93.8607 36.376ZM103.81 23.896C105.41 23.896 106.698 24.376 107.674 25.336C108.666 26.296 109.162 27.72 109.162 29.608V37H105.418V30.184C105.418 29.16 105.194 28.4 104.746 27.904C104.298 27.392 103.65 27.136 102.802 27.136C101.858 27.136 101.106 27.432 100.546 28.024C99.9864 28.6 99.7064 29.464 99.7064 30.616V37H95.9624V19.192H99.7064V25.432C100.202 24.936 100.802 24.56 101.506 24.304C102.21 24.032 102.978 23.896 103.81 23.896ZM125.345 30.592C125.345 30.64 125.321 30.976 125.273 31.6H115.505C115.681 32.4 116.097 33.032 116.753 33.496C117.409 33.96 118.225 34.192 119.201 34.192C119.873 34.192 120.465 34.096 120.977 33.904C121.505 33.696 121.993 33.376 122.441 32.944L124.433 35.104C123.217 36.496 121.441 37.192 119.105 37.192C117.649 37.192 116.361 36.912 115.241 36.352C114.121 35.776 113.257 34.984 112.649 33.976C112.041 32.968 111.737 31.824 111.737 30.544C111.737 29.28 112.033 28.144 112.625 27.136C113.233 26.112 114.057 25.32 115.097 24.76C116.153 24.184 117.329 23.896 118.625 23.896C119.889 23.896 121.033 24.168 122.057 24.712C123.081 25.256 123.881 26.04 124.457 27.064C125.049 28.072 125.345 29.248 125.345 30.592ZM118.649 26.728C117.801 26.728 117.089 26.968 116.513 27.448C115.937 27.928 115.585 28.584 115.457 29.416H121.817C121.689 28.6 121.337 27.952 120.761 27.472C120.185 26.976 119.481 26.728 118.649 26.728ZM131.413 25.792C131.861 25.168 132.461 24.696 133.213 24.376C133.981 24.056 134.861 23.896 135.853 23.896V27.352C135.437 27.32 135.157 27.304 135.013 27.304C133.941 27.304 133.101 27.608 132.493 28.216C131.885 28.808 131.581 29.704 131.581 30.904V37H127.837V24.088H131.413V25.792ZM145.234 20.2H149.122V33.832H157.546V37H145.234V20.2ZM164.803 23.896C166.803 23.896 168.339 24.376 169.411 25.336C170.483 26.28 171.019 27.712 171.019 29.632V37H167.515V35.392C166.811 36.592 165.499 37.192 163.579 37.192C162.587 37.192 161.723 37.024 160.987 36.688C160.267 36.352 159.715 35.888 159.331 35.296C158.947 34.704 158.755 34.032 158.755 33.28C158.755 32.08 159.203 31.136 160.099 30.448C161.011 29.76 162.411 29.416 164.299 29.416H167.275C167.275 28.6 167.027 27.976 166.531 27.544C166.035 27.096 165.291 26.872 164.299 26.872C163.611 26.872 162.931 26.984 162.259 27.208C161.603 27.416 161.043 27.704 160.579 28.072L159.235 25.456C159.939 24.96 160.779 24.576 161.755 24.304C162.747 24.032 163.763 23.896 164.803 23.896ZM164.515 34.672C165.155 34.672 165.723 34.528 166.219 34.24C166.715 33.936 167.067 33.496 167.275 32.92V31.6H164.707C163.171 31.6 162.403 32.104 162.403 33.112C162.403 33.592 162.587 33.976 162.955 34.264C163.339 34.536 163.859 34.672 164.515 34.672ZM182.04 23.896C183.24 23.896 184.328 24.176 185.304 24.736C186.296 25.28 187.072 26.056 187.632 27.064C188.192 28.056 188.472 29.216 188.472 30.544C188.472 31.872 188.192 33.04 187.632 34.048C187.072 35.04 186.296 35.816 185.304 36.376C184.328 36.92 183.24 37.192 182.04 37.192C180.264 37.192 178.912 36.632 177.984 35.512V37H174.408V19.192H178.152V25.456C179.096 24.416 180.392 23.896 182.04 23.896ZM181.392 34.12C182.352 34.12 183.136 33.8 183.744 33.16C184.368 32.504 184.68 31.632 184.68 30.544C184.68 29.456 184.368 28.592 183.744 27.952C183.136 27.296 182.352 26.968 181.392 26.968C180.432 26.968 179.64 27.296 179.016 27.952C178.408 28.592 178.104 29.456 178.104 30.544C178.104 31.632 178.408 32.504 179.016 33.16C179.64 33.8 180.432 34.12 181.392 34.12ZM195.322 37.192C194.25 37.192 193.202 37.064 192.178 36.808C191.154 36.536 190.338 36.2 189.73 35.8L190.978 33.112C191.554 33.48 192.25 33.784 193.066 34.024C193.882 34.248 194.682 34.36 195.466 34.36C197.05 34.36 197.842 33.968 197.842 33.184C197.842 32.816 197.626 32.552 197.194 32.392C196.762 32.232 196.098 32.096 195.202 31.984C194.146 31.824 193.274 31.64 192.586 31.432C191.898 31.224 191.298 30.856 190.786 30.328C190.29 29.8 190.042 29.048 190.042 28.072C190.042 27.256 190.274 26.536 190.738 25.912C191.218 25.272 191.906 24.776 192.802 24.424C193.714 24.072 194.786 23.896 196.018 23.896C196.93 23.896 197.834 24 198.73 24.208C199.642 24.4 200.394 24.672 200.986 25.024L199.738 27.688C198.602 27.048 197.362 26.728 196.018 26.728C195.218 26.728 194.618 26.84 194.218 27.064C193.818 27.288 193.618 27.576 193.618 27.928C193.618 28.328 193.834 28.608 194.266 28.768C194.698 28.928 195.386 29.08 196.33 29.224C197.386 29.4 198.25 29.592 198.922 29.8C199.594 29.992 200.178 30.352 200.674 30.88C201.17 31.408 201.418 32.144 201.418 33.088C201.418 33.888 201.178 34.6 200.698 35.224C200.218 35.848 199.514 36.336 198.586 36.688C197.674 37.024 196.586 37.192 195.322 37.192Z" fill="white"/>
</g>
</g>
<defs>
<filter id="filter0_d_3_10" x="0" y="0" width="214" height="55" filterUnits="userSpaceOnUse" color-interpolation-filters="sRGB">
<feFlood flood-opacity="0" result="BackgroundImageFix"/>
<feColorMatrix in="SourceAlpha" type="matrix" values="0 0 0 0 0 0 0 0 0 0 0 0 0 0 0 0 0 0 127 0" result="hardAlpha"/>
<feOffset dx="1" dy="1"/>
<feGaussianBlur stdDeviation="1.5"/>
<feComposite in2="hardAlpha" operator="out"/>
<feColorMatrix type="matrix" values="0 0 0 0 0.0784314 0 0 0 0 0.0784314 0 0 0 0 0.0784314 0 0 0 0.75 0"/>
<feBlend mode="normal" in2="BackgroundImageFix" result="effect1_dropShadow_3_10"/>
<feBlend mode="normal" in="SourceGraphic" in2="effect1_dropShadow_3_10" result="shape"/>
</filter>
<clipPath id="clip0_3_10">
<rect width="192" height="33" fill="white" transform="translate(10 10)"/>
</clipPath>
</defs>
</svg>
